<svg width="0" height="0" class="hidden">
  <symbol xmlns="http://www.w3.org/2000/svg" viewBox="0 0 48 48" id="copy">
    <path d="M9 43.95q-1.2 0-2.1-.9-.9-.9-.9-2.1V10.8h3v30.15h23.7v3Zm6-6q-1.2 0-2.1-.9-.9-.9-.9-2.1v-28q0-1.2.9-2.1.9-.9 2.1-.9h22q1.2 0 2.1.9.9.9.9 2.1v28q0 1.2-.9 2.1-.9.9-2.1.9Zm0-3h22v-28H15v28Zm0 0v-28 28Z"></path>
  </symbol>
  <symbol xmlns="http://www.w3.org/2000/svg" id="dark_mode" viewBox="0 0 48 48">
    <path d="M24 42q-7.5 0-12.75-5.25T6 24q0-7.5 5.25-12.75T24 6q.4 0 .85.025.45.025 1.15.075-1.8 1.6-2.8 3.95-1 2.35-1 4.95 0 4.5 3.15 7.65Q28.5 25.8 33 25.8q2.6 0 4.95-.925T41.9 22.3q.05.6.075.975Q42 23.65 42 24q0 7.5-5.25 12.75T24 42Zm0-3q5.45 0 9.5-3.375t5.05-7.925q-1.25.55-2.675.825Q34.45 28.8 33 28.8q-5.75 0-9.775-4.025T19.2 15q0-1.2.25-2.575.25-1.375.9-3.125-4.9 1.35-8.125 5.475Q9 18.9 9 24q0 6.25 4.375 10.625T24 39Zm-.2-14.85Z"></path>
  </symbol>
  <symbol xmlns="http://www.w3.org/2000/svg" viewBox="0 0 48 48" id="help">
    <path d="M24.2 35.65q.8 0 1.35-.55t.55-1.35q0-.8-.55-1.35t-1.35-.55q-.8 0-1.35.55t-.55 1.35q0 .8.55 1.35t1.35.55Zm-1.75-7.3h2.95q0-1.3.325-2.375T27.75 23.5q1.55-1.3 2.2-2.55.65-1.25.65-2.75 0-2.65-1.725-4.25t-4.575-1.6q-2.45 0-4.325 1.225T17.25 16.95l2.65 1q.55-1.4 1.65-2.175 1.1-.775 2.6-.775 1.7 0 2.75.925t1.05 2.375q0 1.1-.65 2.075-.65.975-1.9 2.025-1.5 1.3-2.225 2.575-.725 1.275-.725 3.375ZM24 44q-4.1 0-7.75-1.575-3.65-1.575-6.375-4.3-2.725-2.725-4.3-6.375Q4 28.1 4 24q0-4.15 1.575-7.8 1.575-3.65 4.3-6.35 2.725-2.7 6.375-4.275Q19.9 4 24 4q4.15 0 7.8 1.575 3.65 1.575 6.35 4.275 2.7 2.7 4.275 6.35Q44 19.85 44 24q0 4.1-1.575 7.75-1.575 3.65-4.275 6.375t-6.35 4.3Q28.15 44 24 44Zm0-3q7.1 0 12.05-4.975Q41 31.05 41 24q0-7.1-4.95-12.05Q31.1 7 24 7q-7.05 0-12.025 4.95Q7 16.9 7 24q0 7.05 4.975 12.025Q16.95 41 24 41Zm0-17Z"></path>
  </symbol>
  <symbol xmlns="http://www.w3.org/2000/svg" viewBox="0 0 48 48" id="info">
    <path d="M22.65 34h3V22h-3ZM24 18.3q.7 0 1.175-.45.475-.45.475-1.15t-.475-1.2Q24.7 15 24 15q-.7 0-1.175.5-.475.5-.475 1.2t.475 1.15q.475.45 1.175.45ZM24 44q-4.1 0-7.75-1.575-3.65-1.575-6.375-4.3-2.725-2.725-4.3-6.375Q4 28.1 4 23.95q0-4.1 1.575-7.75 1.575-3.65 4.3-6.35 2.725-2.7 6.375-4.275Q19.9 4 24.05 4q4.1 0 7.75 1.575 3.65 1.575 6.35 4.275 2.7 2.7 4.275 6.35Q44 19.85 44 24q0 4.1-1.575 7.75-1.575 3.65-4.275 6.375t-6.35 4.3Q28.15 44 24 44Zm.05-3q7.05 0 12-4.975T41 23.95q0-7.05-4.95-12T24 7q-7.05 0-12.025 4.95Q7 16.9 7 24q0 7.05 4.975 12.025Q16.95 41 24.05 41ZM24 24Z"></path>
  </symbol>
  <symbol xmlns="http://www.w3.org/2000/svg" viewBox="0 0 48 48" id="light_mode">
    <path d="M24 31q2.9 0 4.95-2.05Q31 26.9 31 24q0-2.9-2.05-4.95Q26.9 17 24 17q-2.9 0-4.95 2.05Q17 21.1 17 24q0 2.9 2.05 4.95Q21.1 31 24 31Zm0 3q-4.15 0-7.075-2.925T14 24q0-4.15 2.925-7.075T24 14q4.15 0 7.075 2.925T34 24q0 4.15-2.925 7.075T24 34ZM3.5 25.5q-.65 0-1.075-.425Q2 24.65 2 24q0-.65.425-1.075Q2.85 22.5 3.5 22.5h5q.65 0 1.075.425Q10 23.35 10 24q0 .65-.425 1.075-.425.425-1.075.425Zm36 0q-.65 0-1.075-.425Q38 24.65 38 24q0-.65.425-1.075.425-.425 1.075-.425h5q.65 0 1.075.425Q46 23.35 46 24q0 .65-.425 1.075-.425.425-1.075.425ZM24 10q-.65 0-1.075-.425Q22.5 9.15 22.5 8.5v-5q0-.65.425-1.075Q23.35 2 24 2q.65 0 1.075.425.425.425.425 1.075v5q0 .65-.425 1.075Q24.65 10 24 10Zm0 36q-.65 0-1.075-.425-.425-.425-.425-1.075v-5q0-.65.425-1.075Q23.35 38 24 38q.65 0 1.075.425.425.425.425 1.075v5q0 .65-.425 1.075Q24.65 46 24 46ZM12 14.1l-2.85-2.8q-.45-.45-.425-1.075.025-.625.425-1.075.45-.45 1.075-.45t1.075.45L14.1 12q.4.45.4 1.05 0 .6-.4 1-.4.45-1.025.45-.625 0-1.075-.4Zm24.7 24.75L33.9 36q-.4-.45-.4-1.075t.45-1.025q.4-.45 1-.45t1.05.45l2.85 2.8q.45.45.425 1.075-.025.625-.425 1.075-.45.45-1.075.45t-1.075-.45ZM33.9 14.1q-.45-.45-.45-1.05 0-.6.45-1.05l2.8-2.85q.45-.45 1.075-.425.625.025 1.075.425.45.45.45 1.075t-.45 1.075L36 14.1q-.4.4-1.025.4-.625 0-1.075-.4ZM9.15 38.85q-.45-.45-.45-1.075t.45-1.075L12 33.9q.45-.45 1.05-.45.6 0 1.05.45.45.45.45 1.05 0 .6-.45 1.05l-2.8 2.85q-.45.45-1.075.425-.625-.025-1.075-.425ZM24 24Z"></path>
  </symbol>
  <symbol xmlns="http://www.w3.org/2000/svg" viewBox="0 0 48 48" id="link">
    <path d="M22.5 34H14q-4.15 0-7.075-2.925T4 24q0-4.15 2.925-7.075T14 14h8.5v3H14q-2.9 0-4.95 2.05Q7 21.1 7 24q0 2.9 2.05 4.95Q11.1 31 14 31h8.5Zm-6.25-8.5v-3h15.5v3ZM25.5 34v-3H34q2.9 0 4.95-2.05Q41 26.9 41 24q0-2.9-2.05-4.95Q36.9 17 34 17h-8.5v-3H34q4.15 0 7.075 2.925T44 24q0 4.15-2.925 7.075T34 34Z"></path>
  </symbol>
  <symbol xmlns="http://www.w3.org/2000/svg" viewBox="0 0 48 48" id="share">
    <path d="M36.35 44q-2.35 0-4.025-1.675Q30.65 40.65 30.65 38.3q0-.35.075-.825t.225-.875L15.8 27.8q-.75.85-1.85 1.375t-2.25.525q-2.35 0-4.025-1.675Q6 26.35 6 24q0-2.4 1.675-4.05T11.7 18.3q1.15 0 2.2.45 1.05.45 1.9 1.3l15.15-8.7q-.15-.35-.225-.8-.075-.45-.075-.85 0-2.4 1.675-4.05T36.35 4q2.4 0 4.05 1.65t1.65 4.05q0 2.35-1.65 4.025-1.65 1.675-4.05 1.675-1.15 0-2.225-.375Q33.05 14.65 32.3 13.8l-15.15 8.4q.1.4.175.925.075.525.075.875t-.075.75q-.075.4-.175.8l15.15 8.6q.75-.7 1.75-1.125 1-.425 2.3-.425 2.4 0 4.05 1.65t1.65 4.05q0 2.35-1.65 4.025Q38.75 44 36.35 44Zm0-31.6q1.15 0 1.925-.775.775-.775.775-1.925t-.775-1.925Q37.5 7 36.35 7t-1.925.775q-.775.775-.775 1.925t.775 1.925q.775.775 1.925.775ZM11.7 26.7q1.15 0 1.925-.775.775-.775.775-1.925t-.775-1.925Q12.85 21.3 11.7 21.3t-1.925.775Q9 22.85 9 24t.775 1.925q.775.775 1.925.775ZM36.35 41q1.15 0 1.925-.775.775-.775.775-1.925t-.775-1.925Q37.5 35.6 36.35 35.6t-1.925.775q-.775.775-.775 1.925t.775 1.925Q35.2 41 36.35 41Zm0-31.3ZM11.7 24Zm24.65 14.3Z"></path>
  </symbol>
  <symbol xmlns="http://www.w3.org/2000/svg" viewBox="0 0 48 48" id="close">
    <path d="m12.45 37.65-2.1-2.1L21.9 24 10.35 12.45l2.1-2.1L24 21.9l11.55-11.55 2.1 2.1L26.1 24l11.55 11.55-2.1 2.1L24 26.1Z"></path>
  </symbol>
  <symbol xmlns="http://www.w3.org/2000/svg" viewBox="0 0 48 48" id="code">
    <path d="m16 35.9-12-12 12.1-12.1 2.15 2.15L8.3 23.9l9.85 9.85Zm15.9.1-2.15-2.15 9.95-9.95-9.85-9.85L32 11.9l12 12Z"></path>
  </symbol>
  <symbol xmlns="http://www.w3.org/2000/svg" viewBox="0 0 208 128" id="markdown">
    <rect width="198" height="118" x="5" y="5" ry="10" stroke-width="10" fill="none"></rect><path d="M30 98V30h20l20 25 20-25h20v68H90V59L70 84 50 59v39zm125 0l-30-33h20V30h20v35h20z"></path>
  </symbol>
  <symbol xmlns="http://www.w3.org/2000/svg" viewBox="0 0 48 48" id="wrap_text">
    <path d="m29.6 41.4-6.95-6.95 6.95-6.95 2.1 2.15L28.35 33h6.55q1.75 0 2.925-1.275Q39 30.45 39 28.7t-1.175-3q-1.175-1.25-2.925-1.25H8v-3h26.9q3 0 5.05 2.125T42 28.7q0 3-2.05 5.15Q37.9 36 34.9 36h-6.55l3.35 3.25ZM8 36v-3h11.9v3Zm0-23v-3h32v3Z"/>
  </symbol>
  <symbol xmlns="http://www.w3.org/2000/svg" viewBox="0 0 48 48" id="edit">
    <path d="M9 39h2.2l22.15-22.15-2.2-2.2L9 36.8Zm30.7-24.3-6.4-6.4 2.1-2.1q.85-.85 2.1-.85t2.1.85l2.2 2.2q.85.85.85 2.1t-.85 2.1Zm-2.1 2.1L12.4 42H6v-6.4l25.2-25.2Zm-5.35-1.05-1.1-1.1 2.2 2.2Z"/>
  </symbol>
  <symbol xmlns="http://www.w3.org/2000/svg" viewBox="0 0 48 48" id="no_wrap_text">
    <path d="M6 36v-3h24v3Zm0-10.5v-3h36v3ZM6 15v-3h36v3Z"/>
  </symbol>
  <symbol xmlns="http://www.w3.org/2000/svg" viewBox="0 0 33 32" id="github">
    <path fill-rule="evenodd" clip-rule="evenodd" d="M16 0C7.16 0 0 7.16 0 16C0 23.08 4.58 29.06 10.94 31.18C11.74 31.32 12.04 30.84 12.04 30.42C12.04 30.04 12.02 28.78 12.02 27.44C8 28.18 6.96 26.46 6.64 25.56C6.46 25.1 5.68 23.68 5 23.3C4.44 23 3.64 22.26 4.98 22.24C6.24 22.22 7.14 23.4 7.44 23.88C8.88 26.3 11.18 25.62 12.1 25.2C12.24 24.16 12.66 23.46 13.12 23.06C9.56 22.66 5.84 21.28 5.84 15.16C5.84 13.42 6.46 11.98 7.48 10.86C7.32 10.46 6.76 8.82 7.64 6.62C7.64 6.62 8.98 6.2 12.04 8.26C13.32 7.9 14.68 7.72 16.04 7.72C17.4 7.72 18.76 7.9 20.04 8.26C23.1 6.18 24.44 6.62 24.44 6.62C25.32 8.82 24.76 10.46 24.6 10.86C25.62 11.98 26.24 13.4 26.24 15.16C26.24 21.3 22.5 22.66 18.94 23.06C19.52 23.56 20.02 24.52 20.02 26.02C20.02 28.16 20 29.88 20 30.42C20 30.84 20.3 31.34 21.1 31.18C27.42 29.06 32 23.06 32 16C32 7.16 24.84 0 16 0V0Z"/>
  </symbol>
</svg>
